<?xml version="1.0" standalone="no"?>
<!DOCTYPE svg PUBLIC "-//W3C//DTD SVG 20010904//EN"
 "http://www.w3.org/TR/2001/REC-SVG-20010904/DTD/svg10.dtd">
<svg version="1.0" xmlns="http://www.w3.org/2000/svg"
 width="180.000000pt" height="180.000000pt" viewBox="0 0 180.000000 180.000000"
 preserveAspectRatio="xMidYMid meet">
<metadata>
Created by potrace 1.11, written by Peter Selinger 2001-2013
</metadata>
<g transform="translate(0.000000,180.000000) scale(0.100000,-0.100000)"
fill="#000000" stroke="none">
<path d="M421 1758 c-18 -18 -47 -62 -64 -98 -29 -59 -32 -74 -36 -182 l-3
-118 -159 0 c-135 0 -159 -2 -159 -15 0 -13 25 -15 163 -15 l163 0 22 -90 c12
-49 19 -96 16 -105 -5 -13 -34 -15 -185 -15 -152 0 -179 -2 -179 -15 0 -13 24
-15 160 -15 88 0 160 -3 160 -6 0 -3 -15 -24 -34 -47 -18 -23 -48 -68 -66 -99
l-32 -58 -94 0 c-77 0 -94 -3 -94 -15 0 -12 16 -15 86 -15 85 0 86 0 79 -22
-4 -13 -9 -60 -12 -105 l-6 -83 -73 0 c-59 0 -74 -3 -74 -15 0 -12 16 -15 80
-15 l80 0 25 -49 c28 -56 83 -114 135 -142 l35 -18 -177 -1 c-151 0 -178 -2
-178 -15 0 -13 37 -15 276 -15 l276 0 -7 -88 c-11 -135 -49 -202 -127 -223
-32 -8 -46 -6 -83 10 -48 21 -59 41 -22 41 65 1 101 97 57 153 -63 79 -192 10
-175 -94 21 -125 180 -201 280 -133 76 52 103 109 112 247 l6 87 603 0 c530 0
604 2 604 15 0 12 -17 15 -89 15 -112 0 -138 9 -149 52 -8 32 -8 33 27 38 50
7 49 34 -1 38 -37 3 -38 4 -38 43 l0 39 125 0 c104 0 125 2 125 15 0 13 -21
15 -125 15 l-125 0 0 65 c0 71 -11 82 -35 35 -8 -16 -27 -37 -40 -46 -14 -9
-25 -25 -25 -35 0 -14 -7 -19 -30 -19 -31 0 -31 0 50 94 44 52 80 99 80 105 0
7 41 11 125 11 101 0 125 3 125 14 0 11 -22 15 -100 18 -109 3 -131 14 -144
71 -6 26 -5 27 35 27 52 0 49 24 -4 28 -36 3 -37 4 -37 43 l0 39 125 0 c104 0
125 2 125 15 0 13 -21 15 -125 15 l-125 0 0 70 c0 75 -10 88 -30 40 -7 -17
-26 -40 -41 -51 -16 -11 -29 -29 -29 -40 0 -15 -7 -19 -31 -19 l-31 0 81 95
c45 52 81 99 81 105 0 6 45 10 125 10 104 0 125 2 125 15 0 13 -48 15 -370 15
l-370 0 0 45 c0 39 4 47 24 55 29 10 39 38 30 75 -5 21 -11 26 -30 22 -22 -4
-23 -1 -26 67 -2 55 -6 71 -18 71 -12 0 -16 -17 -18 -81 -3 -76 -4 -82 -28
-93 -14 -6 -29 -11 -34 -11 -5 0 -10 33 -12 73 -2 56 -6 72 -18 72 -12 0 -16
-17 -18 -82 -3 -81 -4 -83 -32 -98 -26 -13 -30 -21 -30 -55 0 -44 11 -56 40
-40 16 9 20 8 20 -5 0 -13 -22 -15 -152 -15 l-153 0 3 61 c4 72 -17 156 -60
244 -33 66 -74 125 -87 125 -5 0 -23 -15 -40 -32z m105 -153 c18 -45 18 -128
-1 -193 l-16 -52 -69 0 -70 0 0 45 c0 24 9 69 21 100 21 55 84 135 108 135 7
0 19 -16 27 -35z m494 -210 c0 -33 -2 -35 -35 -35 -30 0 -35 3 -35 24 0 17 8
27 28 34 41 15 42 15 42 -23z m-530 -73 c0 -14 -71 -122 -81 -122 -5 0 -9 3
-9 8 -1 4 -7 33 -14 65 l-14 57 59 0 c32 0 59 -4 59 -8z m420 -36 c0 -39 -3
-45 -31 -56 -27 -12 -30 -16 -27 -54 3 -38 5 -41 31 -39 15 1 27 -2 27 -8 0
-5 -86 -9 -210 -9 -115 0 -210 2 -210 5 0 2 17 31 38 63 21 32 44 77 51 100
l14 42 159 0 158 0 0 -44z m108 22 c-2 -13 -15 -27 -35 -35 l-33 -13 0 35 c0
33 2 35 36 35 31 0 35 -3 32 -22z m370 -39 c-4 -34 -17 -81 -27 -105 l-20 -44
-140 0 -141 0 0 44 c0 38 3 45 24 50 28 7 40 43 27 80 -7 18 -15 23 -30 19
-12 -3 -21 -1 -21 6 0 8 51 11 168 11 l169 0 -9 -61z m110 54 c-10 -2 -28 -2
-40 0 -13 2 -5 4 17 4 22 1 32 -1 23 -4z m-478 -168 c0 -33 -2 -35 -35 -35
-63 0 -42 45 33 69 1 1 2 -15 2 -34z m-110 -108 c0 -24 3 -47 7 -50 14 -14 33
17 33 54 0 38 1 39 34 39 30 0 35 -3 38 -27 2 -17 9 -28 18 -28 9 0 16 11 18
28 l3 27 131 0 130 0 -31 -42 c-48 -65 -45 -68 62 -68 l94 0 -5 -29 c-2 -17
-13 -38 -24 -48 -19 -17 -52 -18 -467 -21 l-447 -3 -27 84 c-45 139 -65 127
203 127 l230 0 0 -43z m538 1 l3 -38 -76 0 -77 0 32 41 c30 37 36 40 74 37 40
-3 41 -4 44 -40z m-1014 -93 c10 -36 16 -68 14 -71 -3 -3 -37 -4 -76 -2 l-71
3 49 68 c28 37 53 67 58 67 4 0 16 -29 26 -65z m-64 -131 c-42 -36 -61 -77
-63 -135 l-2 -49 -42 0 c-38 0 -43 3 -43 23 0 29 27 122 46 160 13 25 19 27
75 27 l61 0 -32 -26z m1023 -21 c-3 -27 -15 -73 -27 -103 l-21 -55 -298 -3
c-244 -2 -297 0 -297 11 0 35 -65 140 -103 168 l-40 29 395 0 396 0 -5 -47z
m100 40 c-13 -2 -33 -2 -45 0 -13 2 -3 4 22 4 25 0 35 -2 23 -4z m-995 -134
c7 -28 12 -55 12 -60 0 -5 -31 -9 -70 -9 -69 0 -70 0 -70 26 0 34 59 94 92 94
21 0 26 -7 36 -51z m98 30 c34 -21 74 -68 74 -88 0 -7 -22 -11 -54 -11 -59 0
-60 1 -71 74 -8 53 0 57 51 25z m-261 -162 c21 -33 79 -77 101 -77 25 0 15 30
-21 61 -19 17 -35 35 -35 40 0 5 31 9 69 9 l69 0 11 -63 c6 -35 11 -78 11 -97
l0 -33 -67 5 c-106 8 -193 60 -234 140 -10 21 -19 40 -19 43 0 3 21 5 48 5 42
-1 49 -4 67 -33z m345 -3 c0 -42 -29 -94 -65 -118 -34 -22 -35 -21 -35 27 -1
23 -5 61 -9 85 l-8 42 58 0 59 0 0 -36z m634 24 c-4 -7 -18 -27 -31 -44 -13
-17 -23 -36 -23 -41 0 -15 36 -23 113 -23 63 0 67 -1 67 -22 0 -29 -9 -42 -37
-57 -30 -16 -807 -15 -778 1 56 31 125 130 125 181 0 16 20 17 286 17 225 0
284 -3 278 -12z m134 -30 l3 -38 -76 0 -76 0 33 40 c29 37 36 41 73 38 38 -3
40 -4 43 -40z"/>
</g>
</svg>
